<svg xmlns:inkscape="http://www.inkscape.org/namespaces/inkscape" xmlns:sodipodi="http://sodipodi.sourceforge.net/DTD/sodipodi-0.dtd" xmlns="http://www.w3.org/2000/svg" xmlns:svg="http://www.w3.org/2000/svg" version="1.1" viewBox="0 0 4303.6646 4619.539125" x="0px" y="0px"><g transform="translate(-547.95996,-1363.1279)"><path style="" d="m 2036.2897,5057.7578 c -17.7244,-1.6624 -42.8302,-8.1176 -59.8142,-15.3794 -37.3905,-15.987 -68.7173,-41.5588 -91.8865,-75.0062 -26.5542,-38.334 -39.6618,-87.0174 -36.011,-133.75 2.1592,-27.6387 8.2206,-50.5158 19.7393,-74.5 3.4999,-7.2875 6.2057,-13.25 6.0129,-13.25 -0.1927,0 -1.5236,2.0017 -2.9573,4.4483 -1.4338,2.4466 -3.0275,4.7082 -3.5415,5.0259 -0.8045,0.4973 -98.8718,-62.0144 -286.5417,-182.6523 -26.95,-17.324 -117.625,-75.5169 -201.5,-129.3175 -83.875,-53.8007 -203.8,-130.7464 -266.5,-170.9905 -62.7,-40.2441 -127.27497,-81.6438 -143.49997,-91.9993 -16.225,-10.3555 -30.12624,-19.4 -30.89164,-20.0988 -1.18124,-1.0784 -1.0664,-1.8484 0.75953,-5.0932 l 2.15117,-3.8226 -3.73829,4.5 c -7.81531,9.4078 -24.14378,25.5454 -33.16976,32.7822 -52.60973,42.1808 -123.4225,56.4953 -188.49324,38.103 -55.83353,-15.7815 -103.15763,-54.8067 -129.55961,-106.8397 -17.49618,-34.4814 -25.20959,-72.6853 -22.26877,-110.2955 3.25759,-41.6614 17.07582,-78.3401 42.09765,-111.743 7.68996,-10.2657 25.75902,-28.7608 36.07684,-36.9274 26.85553,-21.2562 58.15942,-35.7969 90.44279,-42.0106 39.7251,-7.6461 81.7933,-3.7984 118.40943,10.8301 2.92386,1.1681 5.07101,1.7273 4.77146,1.2426 -0.29956,-0.4847 -1.9043,-1.4445 -3.5661,-2.1328 -1.6618,-0.6884 -3.02146,-1.6585 -3.02146,-2.1558 0,-0.4974 35.82863,-69.3046 79.61917,-152.9051 l 79.6192,-152.0007 -10.08998,-13.2236 c -5.54947,-7.2731 -37.7496,-49.2237 -71.55584,-93.2237 l -61.4659,-80 4.18667,-3.7772 c 4.1184,-3.7157 4.04806,-3.6941 -4.31332,1.324 -25.92481,15.559 -58.08161,26.0671 -88.5,28.9199 -47.17393,4.4242 -94.60615,-7.2525 -133.09454,-32.7646 -14.80851,-9.8159 -20.55186,-14.3647 -31.72621,-25.1276 -43.51145,-41.9095 -66.94655,-100.1137 -64.30797,-159.7174 2.66719,-60.2502 29.26595,-113.8843 75.84173,-152.9283 55.59981,-46.6088 131.94997,-60.5181 202.39451,-36.8718 11.04272,3.7067 36.25709,16.1061 46.39248,22.8139 6.92942,4.586 7.71185,4.9329 4.23452,1.8773 -2.34602,-2.0615 -4.25852,-4.0872 -4.25,-4.5015 0.009,-0.4142 27.01548,-33.5741 60.01548,-73.6886 33,-40.1145 60,-73.3751 60,-73.9126 0,-0.5374 -36.02829,-71.2519 -80.06286,-157.1434 -44.03458,-85.8914 -80.2971,-156.7766 -80.58338,-157.5226 -0.33087,-0.8622 1.24046,-2.3101 4.31287,-3.974 2.65835,-1.4396 3.93337,-2.2931 2.83337,-1.8967 -27.10241,9.7672 -42.13615,13.4908 -62,15.3564 -38.10255,3.5786 -77.66248,-3.8156 -112.32079,-20.994 -60.88894,-30.1795 -102.36072,-85.8926 -114.28535,-153.5306 -3.28615,-18.6395 -3.28615,-50.2417 0,-68.8812 7.63434,-43.3029 25.85284,-79.4889 55.57816,-110.3905 18.49169,-19.2235 35.65661,-31.8135 58.82459,-43.1462 31.9474,-15.6271 58.18495,-21.5961 94.20339,-21.431 41.23379,0.189 74.86011,9.9163 110.50889,31.9677 19.06718,11.7945 41.55652,32.4315 54.96809,50.4406 7.90631,10.6166 8.99662,11.7171 5.81697,5.8712 l -2.51764,-4.6287 33.11185,-18.7839 c 18.21151,-10.3312 58.53681,-33.2637 89.61181,-50.9611 88.028,-50.1326 248.6021,-141.5267 477,-271.4944 115.225,-65.5677 237.455,-135.1416 271.6221,-154.6086 34.1672,-19.467 62.5258,-35.3945 63.0192,-35.3945 0.4934,0 2.3814,2.7 4.1956,6 4.4623,8.1169 4.9986,7.6154 0.802,-0.75 -10.7022,-21.3337 -17.9942,-51.5081 -19.2724,-79.75 -3.4814,-76.922 36.1933,-149.5036 103.6006,-189.5288 82.1322,-48.7686 189.3615,-34.25 256.0738,34.6719 43.4204,44.8585 64.8129,105.1294 58.8961,165.9332 -2.1886,22.4916 -9.9202,51.5425 -17.952,67.4535 -3.8573,7.6411 -3.8304,8.977 0.045,2.2202 1.656,-2.8875 3.3891,-5.25 3.8514,-5.25 0.4623,0 19.4657,10.7284 42.2298,23.8408 137.6593,79.2941 302.2114,174.1345 414.8892,239.1236 71.225,41.0803 187.55,108.1185 258.5,148.9737 70.95,40.8553 145.425,83.7438 165.5,95.3078 20.075,11.564 36.8977,21.3846 37.3838,21.8236 0.4958,0.4477 -0.2883,2.9126 -1.7858,5.6143 -1.4684,2.6489 -1.8661,3.6955 -0.8839,2.3259 11.6448,-16.2384 32.0922,-37.4689 46.4954,-48.2761 41.5959,-31.211 93.3524,-46.3132 143.2905,-41.8113 52.5389,4.7364 98.1205,26.2302 134.0671,63.2188 33.1783,34.1402 53.746,78.6364 58.3723,126.2826 1.6348,16.8374 1.2522,31.2073 -1.4008,52.6133 -0.5177,4.1777 -0.48,4.2712 0.5911,1.463 0.6292,-1.65 1.2551,-3.1351 1.3908,-3.3003 0.2478,-0.3016 107.8464,28.7376 404.9795,109.2975 159.8626,43.3426 379.1494,102.7353 449,121.6093 20.35,5.4987 37.7571,10.2199 38.6825,10.4915 1.548,0.4544 1.5625,0.8976 0.1819,5.5466 -0.8252,2.779 -1.3169,5.2362 -1.0927,5.4605 0.2243,0.2243 0.9683,-1.5076 1.6534,-3.8487 2.0481,-6.9993 14.5184,-32.0934 20.6184,-41.4906 23.0645,-35.5314 57.5837,-64.2881 96.1745,-80.1196 69.5451,-28.5301 145.7538,-18.718 207.282,26.6882 9.0966,6.713 27.1445,24.0982 34.9489,33.6656 32.8717,40.2971 49.8628,90.7082 47.7019,141.5274 -1.666,39.18 -13.7323,76.3995 -35.1567,108.4437 -21.4161,32.0316 -54.4382,60.1638 -87.6747,74.6919 -52.5719,22.9798 -108.6988,24.7681 -161.3194,5.1401 -17.2003,-6.4159 -41.8535,-20.396 -56,-31.7559 l -6,-4.8181 4.854,5.0254 4.854,5.0254 -68.354,71.8845 c -216.8439,228.0439 -274.9737,289.5814 -274.5612,290.6564 0.2527,0.6583 25.3776,28.8647 55.8333,62.6807 30.4556,33.816 108.6061,120.6203 173.6677,192.8984 l 118.2939,131.4148 -4.7939,4.416 -4.7938,4.4161 6,-4.4354 c 24.2505,-17.927 56.3511,-32.1985 84.5,-37.5677 48.7169,-9.2925 97.6513,-1.9719 140.2249,20.9775 38.6817,20.8516 69.2189,52.5574 88.8594,92.2599 20.878,42.2043 26.823,88.6622 17.3196,135.346 -3.4983,17.1848 -8.4127,31.3803 -16.8847,48.7729 -11.8794,24.3877 -23.1993,40.1081 -42.1659,58.5573 -58.3732,56.7811 -140.9712,74.6055 -218.1157,47.0688 -27.7872,-9.9187 -51.3783,-24.7019 -73.6081,-46.1261 -25.0949,-24.1855 -41.8227,-50.2576 -53.2526,-83 -2.984,-8.5481 -3.2942,-9.0571 -3.0966,-5.0795 l 0.2197,4.4205 -36,7.407 c -35.3257,7.2682 -187.4162,38.8251 -396.5,82.2688 -58.025,12.0565 -172.775,35.853 -255,52.8811 -82.225,17.0281 -159.0664,32.9523 -170.7587,35.3871 l -21.2588,4.4269 -0.9187,-3.1059 c -0.6024,-2.0365 -0.7279,2.0589 -0.3646,11.894 0.9861,26.6926 -2.3537,50.3516 -10.6725,75.6053 -21.5886,65.5366 -75.3049,117.0289 -141.6445,135.7799 -20.9333,5.9168 -32.4281,7.399 -57.3822,7.399 -18.6929,0 -24.5305,-0.3658 -34.5,-2.1616 -52.1473,-9.3933 -94.138,-34.0016 -129.8925,-76.1226 -3.8031,-4.4802 -3.8101,-4.4833 -1.5996,-0.6974 1.2211,2.0914 2.0564,3.9217 1.8562,4.0672 -0.2003,0.1456 -19.4891,12.4351 -42.8641,27.31 -23.375,14.875 -94.7,60.3454 -158.5,101.0455 -63.8,40.7 -120.95,77.1554 -127,81.012 -6.05,3.8565 -69.05,44.0301 -140,89.2746 -238.9126,152.3536 -379.7414,242.1845 -424.3301,270.6689 -24.3816,15.5756 -44.4763,28.3192 -44.655,28.3192 -0.1787,0 -1.5116,-2.025 -2.962,-4.5 -1.4505,-2.475 -2.8123,-4.5 -3.0264,-4.5 -0.2141,0 2.237,5.5125 5.4467,12.25 25.3807,53.2755 26.4732,116.0125 2.9822,171.25 -17.7166,41.6593 -49.3656,77.1194 -88.9554,99.6669 -38.4709,21.9104 -80.7642,30.9145 -125.5,26.7187 z m 42.7186,-50.3697 c 34.461,-4.5174 66.6444,-20.3846 91.2976,-45.012 39.9183,-39.8763 55.8996,-95.9243 42.9078,-150.4815 -11.2248,-47.1366 -42.3321,-85.8878 -85.9269,-107.0412 -43.2092,-20.9665 -93.4339,-21.2015 -137.8338,-0.6452 -32.2221,14.9183 -61.4234,44.055 -76.1953,76.0269 -16.2937,35.2655 -19.7194,75.0831 -9.5904,111.471 12.0537,43.3024 42.7499,80.484 82.6224,100.0787 29.8749,14.6815 60.4716,19.8306 92.7186,15.6033 z m 145.6556,-287.566 c -1.7091,-2.7775 -2.9424,-5.1714 -2.7408,-5.3197 0.2016,-0.1483 22.6416,-14.4572 49.8666,-31.7975 27.225,-17.3403 104.4,-66.5468 171.5,-109.3478 67.1,-42.801 181.4,-115.6999 254,-161.9975 72.6,-46.2976 195,-124.3692 272,-173.4925 77,-49.1232 151.1748,-96.4429 164.8328,-105.1549 13.658,-8.712 24.9778,-15.84 25.155,-15.84 0.1772,0 1.5089,2.025 2.9593,4.5 4.5195,7.712 3.7949,4.946 -1.4339,-5.4737 -10.3467,-20.6182 -17.7558,-47.5193 -20.1129,-73.0263 -1.0439,-11.2968 -0.739,-34.8139 0.572,-44.1112 0.2628,-1.8638 -0.1451,-0.9921 -0.9065,1.9372 -0.7615,2.9293 -1.5378,5.4413 -1.7251,5.5821 -0.1874,0.1409 -8.4407,-1.4486 -18.3407,-3.5322 -9.9,-2.0836 -76.725,-15.9509 -148.5,-30.8161 -71.775,-14.8652 -142.3544,-29.5099 -156.8431,-32.5437 -14.4887,-3.0339 -26.8813,-5.5161 -27.539,-5.5161 -0.6577,0 -45.9533,58.7573 -100.6569,130.5717 -110.9529,145.6581 -308.4398,404.8837 -412.6692,541.6783 -37.6113,49.3625 -68.8476,89.75 -69.4139,89.75 -0.5664,0 -3.8081,-2.124 -7.2039,-4.72 -4.8087,-3.6763 -3.6039,-2.241 5.4489,6.4908 6.3926,6.1659 14.4618,14.815 17.9315,19.22 3.4697,4.4051 6.4478,8.0092 6.6179,8.0092 0.1701,0 -1.0891,-2.2725 -2.7981,-5.0501 z m -315.4113,-18.8742 c 6.594,-6.8254 9.1024,-9.8783 6.2312,-7.5837 -4.7194,3.7714 -4.839,3.8061 -6.6383,1.9243 -1.0078,-1.054 -72.1557,-93.7163 -158.1064,-205.9163 -85.9508,-112.2 -163.5524,-213.45 -172.4482,-225 -8.8957,-11.55 -44.9582,-58.575 -80.1389,-104.5 -168.343,-219.7556 -172.2817,-224.8324 -174.0984,-224.4051 -0.9701,0.2282 -61.1639,12.8005 -133.7639,27.9383 -72.6,15.1378 -148.1611,30.8986 -167.9137,35.0238 -19.7525,4.1253 -36.38506,7.3434 -36.96122,7.1514 -0.57615,-0.1921 -1.61243,-2.5675 -2.30284,-5.2788 -0.6904,-2.7113 -1.0441,-3.4046 -0.78599,-1.5408 1.29033,9.3175 1.60501,32.8375 0.58648,43.8348 -2.37592,25.6535 -9.91197,53.0223 -20.45881,74.3008 -2.99209,6.0366 -5.30827,10.9756 -5.14705,10.9756 0.16121,0 1.46622,-2.0017 2.9,-4.4483 1.43379,-2.4466 3.02535,-4.707 3.53679,-5.023 0.51145,-0.3161 22.21861,13.0792 48.23814,29.7675 138.9189,89.0988 327.1685,209.8867 433.3082,278.0265 66,42.3708 158.7,101.8574 206,132.1925 47.3,30.3351 113.9,73.0676 148,94.961 34.1,21.8935 68.75,44.0934 77,49.3332 8.25,5.2398 15.622,10.0893 16.3823,10.7767 1.1671,1.0554 1.0367,1.8461 -0.8384,5.0819 -2.0668,3.5666 -1.9227,3.4857 2.0807,-1.168 2.3657,-2.75 9.2679,-10.1409 15.3383,-16.4243 z m 13.6647,-12.8257 c 1.2438,-1.5861 1.2085,-1.6214 -0.3776,-0.3776 -0.9625,0.7549 -1.75,1.5424 -1.75,1.75 0,0.8231 0.8212,0.2933 2.1276,-1.3724 z m 252.3724,-13.8386 c -2.8598,-2.3991 -9.7868,-6.5006 -8.2818,-4.9037 1.0311,1.0941 10.1859,7.3784 10.7818,7.4012 0.275,0.011 -0.85,-1.1133 -2.5,-2.4975 z m -226.5,-5.0359 c 0,-0.7105 -5.827,2.5355 -6.4967,3.6191 -0.3429,0.5549 0.9786,0.064 2.9366,-1.0917 1.9581,-1.1552 3.5601,-2.2926 3.5601,-2.5274 z m 187.2194,-16.1582 c -2.9043,-1.4635 -5.1543,-3.141 -5,-3.7277 0.1543,-0.5868 41.1765,-81.8245 91.1603,-180.5282 49.9838,-98.7038 137.6683,-271.8519 194.8544,-384.7736 57.1861,-112.9218 103.8153,-205.4265 103.6203,-205.566 -0.1949,-0.1396 -45.3544,-9.569 -100.3544,-20.9542 -55,-11.3853 -113.725,-23.5471 -130.5,-27.0262 l -30.5,-6.3258 0.2197,-4.4078 c 0.1982,-3.9778 -0.1086,-3.4811 -3.1453,5.0922 -11.8086,33.3385 -28.0713,58.7187 -53.2113,83.0432 -15.3924,14.893 -26.7287,23.2545 -44.8631,33.09 -58.6522,31.8109 -127.4599,34.2958 -187.6939,6.7782 -34.1519,-15.6021 -65.9782,-42.5333 -86.7547,-73.4114 -9.7241,-14.452 -18.7372,-32.4602 -24.5688,-49.0885 -2.7219,-7.7614 -3.3507,-8.9284 -2.8984,-5.3795 l 0.5775,4.5321 -11.3308,2.3065 c -43.7782,8.9118 -255.3209,53.2861 -255.6643,53.6295 -0.2351,0.2351 37.8314,75.0313 84.5923,166.2137 200.8023,391.5587 309.2411,603.265 309.2411,603.7349 0,0.277 -1.6875,1.4407 -3.75,2.5861 -2.0625,1.1455 -2.85,1.7826 -1.75,1.4158 1.1,-0.3667 6.5,-2.2069 12,-4.0892 23.8547,-8.1642 40.1101,-10.7887 67,-10.8174 21.3166,-0.023 32.9168,1.318 51.5,5.9528 9.2354,2.3034 25.9721,7.8306 29,9.5772 0.825,0.4758 1.95,0.8515 2.5,0.8347 0.55,-0.017 -1.3763,-1.2278 -4.2806,-2.6914 z m 240.4778,-263.7173 c 222.4975,-292.0596 203.1912,-266.7136 284.3797,-373.3422 39.0896,-51.3382 70.926,-93.4861 70.7476,-93.662 -0.1785,-0.1759 -35.4245,-7.5613 -78.3245,-16.412 -42.9,-8.8507 -78.7824,-16.2719 -79.7387,-16.4914 -2.0519,-0.4712 15.2428,-34.2859 -204.2789,399.4076 -187.5645,370.558 -164.9572,325.7415 -163.6912,324.5 0.5608,-0.55 77.4685,-101.35 170.906,-224 z m -476.0316,207.25 c -4.6472,-8.9375 -31.6205,-61.475 -59.9406,-116.75 -41.1116,-80.2412 -222.3164,-433.7761 -288.4383,-562.75 -7.4017,-14.4375 -13.7568,-26.2426 -14.1222,-26.2335 -0.3655,0.01 -35.7645,7.3801 -78.6645,16.3801 -52.3886,10.9906 -77.912,16.7492 -77.7318,17.538 0.1474,0.6459 47.603,62.9123 105.4567,138.3699 57.8538,75.4575 138.9862,181.2955 180.2943,235.1955 41.3081,53.9 96.8361,126.35 123.3957,161 26.5595,34.65 63.8814,83.3577 82.9375,108.2392 19.0562,24.8816 34.786,45.2441 34.9551,45.25 0.1691,0.01 -3.4947,-7.3017 -8.1419,-16.2392 z M 792.51063,4183.797 c 43.1747,-4.8142 82.52271,-27.7535 110.09789,-64.1854 7.00937,-9.2606 15.8052,-25.1689 19.91023,-36.0099 20.40598,-53.8901 12.10047,-111.9811 -22.45295,-157.042 -5.99131,-7.8132 -20.19966,-21.9728 -28.31293,-28.2159 -47.6118,-36.6364 -111.33096,-43.5852 -166.29984,-18.1356 -32.22213,14.9183 -61.42339,44.055 -76.19529,76.0269 -15.83438,34.2714 -19.52239,72.6778 -10.38395,108.1371 6.23756,24.2032 16.51983,44.1574 32.77126,63.5973 34.13116,40.8277 87.10505,61.8222 140.86558,55.8275 z m 2584.86547,-1.3417 c 47.4558,-8.4045 87.9501,-37.1737 111.9252,-79.5172 29.0805,-51.3603 26.5791,-117.0655 -6.3409,-166.5659 -40.7249,-61.2361 -118.0353,-86.7682 -187.5074,-61.9252 -39.0696,13.9711 -73.1334,44.8598 -90.1953,81.7881 -15.8344,34.2714 -19.5224,72.6778 -10.3839,108.1371 6.2375,24.2032 16.5198,44.1574 32.7712,63.5973 26.0389,31.1478 64.2282,51.5526 104.6447,55.9126 10.5656,1.1397 34.952,0.368 45.0864,-1.4268 z m 181.0759,-185.8331 c -0.2774,-0.6875 -0.5044,-0.125 -0.5044,1.25 0,1.375 0.227,1.9375 0.5044,1.25 0.2774,-0.6875 0.2774,-1.8125 0,-2.5 z m -2583.17976,-35.0181 -0.64004,-4.268 44.3288,-9.1776 c 167.6818,-34.716 272.7763,-56.8903 272.5698,-57.5107 -0.5516,-1.6571 -159.0067,-207.7756 -159.729,-207.7756 -0.7566,0 -15.1109,15.1235 -131.88983,138.9578 -28.80776,30.5482 -55.016,58.2334 -58.24051,61.5227 l -5.86276,5.9805 -6.75774,-6.4805 c -6.11552,-5.8646 -6.27285,-5.9578 -1.6555,-0.9805 20.5999,22.2058 37.5417,51.0397 45.97699,78.25 0.98039,3.1625 1.95292,5.75 2.16118,5.75 0.20825,0 0.0906,-1.9206 -0.26139,-4.2681 z m 2181.00656,-18.2319 c 9.5278,-22.3443 23.7425,-44.1569 40.4035,-62 4.7918,-5.1319 4.5087,-4.9455 -1.9566,1.2878 l -7.5591,7.2878 -53.4384,-56.2668 c -29.3912,-30.9467 -75.0385,-79.0715 -101.4385,-106.9441 -26.4,-27.8726 -48.45,-50.5743 -49,-50.4484 -1.0553,0.2417 -162.4675,211.5957 -162.488,212.7628 -0.01,0.3735 2.5755,1.1989 5.738,1.8342 3.1625,0.6353 68.3,14.1259 144.75,29.979 76.45,15.8532 147.55,30.5929 158,32.7549 l 19,3.931 -0.2197,4.4109 c -0.1983,3.9814 0.1077,3.4858 3.1417,-5.0891 1.8488,-5.225 4.129,-11.3 5.0671,-13.5 z m 395.279,18.3242 -0.2681,-4.1757 23,-4.7791 c 12.65,-2.6285 81.725,-16.9444 153.5,-31.8132 71.775,-14.8688 176.096,-36.4925 231.8244,-48.0526 55.7284,-11.5602 174.0784,-36.1025 263,-54.5386 88.9216,-18.4361 172.0256,-35.6808 184.6756,-38.3214 12.65,-2.6407 23.1533,-4.6875 23.3407,-4.5484 0.1873,0.139 0.9371,2.6495 1.666,5.5788 l 1.3254,5.326 -0.666,-7 c -1.2188,-12.8088 -0.5706,-42.4272 1.1678,-53.3635 1.9348,-12.1717 5.6114,-27.1551 9.1447,-37.2682 2.7705,-7.9299 2.8359,-10.5988 0.083,-3.3906 -0.9499,2.4873 -2.2524,4.5179 -2.8944,4.5125 -0.642,-0.01 -3.4173,-1.0725 -6.1673,-2.3714 -6.4016,-3.0237 -250.0093,-116.98 -329.5,-154.1355 -33.275,-15.5534 -86.1195,-40.2671 -117.4323,-54.9193 -31.3128,-14.6523 -57.4792,-26.5107 -58.1476,-26.3522 -0.6685,0.1585 -15.3239,15.1482 -32.5677,33.3103 -17.2438,18.1622 -90.7524,95.5542 -163.3524,171.9821 -72.6,76.428 -151.995,160.0249 -176.4333,185.7708 l -44.4332,46.8109 -7.5643,-7.293 c -6.4601,-6.2283 -6.7464,-6.417 -1.9618,-1.2929 20.944,22.4299 37.9477,51.2418 46.4753,78.75 0.9804,3.1625 1.9335,5.75 2.1181,5.75 0.1845,0 0.2148,-1.8791 0.067,-4.1758 z m -1472.5495,-46.3083 c 34.7411,-4.5541 66.6804,-20.3877 91.7908,-45.5044 65.056,-65.0721 61.7241,-172.2567 -7.2409,-232.9363 -48.0225,-42.2531 -115.5514,-51.8485 -174.1052,-24.7392 -32.2221,14.9183 -61.4234,44.055 -76.1953,76.0269 -20.744,44.8977 -20.3842,95.1205 0.997,139.1371 23.6196,48.625 72.8728,83.1853 126.035,88.4372 13.1558,1.2996 26.7165,1.1521 38.7186,-0.4213 z m 2590.3678,-0.9232 c 48.6863,-8.6801 90.1406,-38.8053 113.6534,-82.5927 27.2854,-50.813 24.1122,-115.1105 -8.0691,-163.5 -55.7734,-83.8638 -174.2814,-95.8607 -245.7748,-24.8804 -22.0812,21.9227 -35.6139,46.0738 -42.8112,76.4028 -8.6639,36.5091 -4.5605,73.6316 11.8803,107.4776 23.5165,48.4128 70.3988,81.5564 125.21,88.5175 9.2543,1.1754 35.9793,0.346 45.9114,-1.4248 z m -3238.9669,-52.0968 c 46.0472,-9.6273 83.8555,-17.6376 84.0185,-17.8006 0.2865,-0.2865 -187.2546,-366.6452 -188.1419,-367.5325 -0.533,-0.533 -5.2112,4.3657 -91.3676,95.6752 -62.3083,66.035 -68.1412,72.5024 -66.9421,74.2251 1.9823,2.8479 178.2832,232.8671 178.5123,232.9045 0.1093,0.018 37.8737,-7.8445 83.9208,-17.4717 z m 1375.5817,-36.7854 c 21.8357,-28.7158 62.6692,-82.3605 90.741,-119.2105 28.0719,-36.85 51.0438,-67.3371 51.0488,-67.7492 0,-0.412 -25.7535,-27.8408 -57.241,-60.9529 -31.4875,-33.1121 -67.7455,-71.25 -80.5732,-84.7508 -12.8278,-13.5009 -23.7567,-24.5471 -24.2863,-24.5471 -1.1238,0 -189.9887,372.55 -189.5616,373.9242 0.2693,0.8666 163.8447,35.3474 168.1711,35.4495 1.4893,0.035 12.1385,-13.2857 41.7012,-52.1632 z m -1901.02888,34.4287 -5.3277,-4.7741 70.24997,-74.4326 c 38.63751,-40.9379 83.78491,-88.743 100.32771,-106.2337 16.5427,-17.4906 30.1902,-32.1157 30.3278,-32.5002 0.2434,-0.6806 -53.2008,-70.9936 -56.5629,-74.416 -1.5871,-1.6156 -6.0984,6.7051 -76.04114,140.25 -40.89468,78.0821 -74.5501,141.9674 -74.78983,141.9674 -0.23973,0 -2.33045,-0.9495 -4.64604,-2.11 -5.37108,-2.6919 -4.07728,-1.4817 5.28984,4.948 4.125,2.8314 9.3,6.7093 11.5,8.6175 2.2,1.9082 4.225,3.4668 4.5,3.4637 0.275,0 -1.89747,-2.1542 -4.82771,-4.78 z M 3233.55,3850.018 c 2.8819,-1.8449 5.2397,-3.5265 5.2397,-3.737 0,-0.2106 -2.0151,0.5962 -4.4781,1.7928 -2.4629,1.1966 -4.6561,1.9782 -4.8737,1.737 -0.2176,-0.2412 -29.5458,-55.7886 -65.1738,-123.4386 -35.628,-67.65 -70.4193,-133.6995 -77.314,-146.7766 -9.7735,-18.5374 -12.7914,-23.4953 -13.6957,-22.5 -2.3657,2.6037 -58.4219,76.651 -58.6882,77.5241 -0.2616,0.858 17.9203,20.2524 82.7355,88.2525 15.4651,16.225 50.0705,52.6149 76.9008,80.8665 l 48.7826,51.3665 -4.8477,5.0173 -4.8477,5.0174 7.5103,-5.8839 c 4.1307,-3.2361 9.8682,-7.3932 12.75,-9.238 z m 247.8547,9.971 -4.8098,-4.8832 58.3474,-61.3974 c 32.0911,-33.7685 91.8924,-96.7086 132.8919,-139.8668 40.9995,-43.1581 104.6745,-110.1477 141.5,-148.8655 65.0396,-68.3818 72.0849,-75.9348 71.3193,-76.4585 -0.2001,-0.1368 -4.8638,-2.3275 -10.3638,-4.8681 -10.9897,-5.0765 -184.4775,-86.1404 -259,-121.0205 -25.85,-12.099 -54.6299,-25.5613 -63.9554,-29.9162 -9.3254,-4.3549 -17.1211,-8.0838 -17.3237,-8.2864 -0.2026,-0.2026 0.373,-1.802 1.2791,-3.5542 3.0423,-5.8832 0.8292,-4.1121 -2.9619,2.3703 -10.2161,17.4687 -35.0711,44.659 -52.8727,57.8403 -28.0894,20.799 -59.7621,33.9788 -94.8616,39.4744 -15.5283,2.4313 -46.0793,2.4313 -61.6076,0 -27.4094,-4.2915 -53.793,-13.6548 -76.2868,-27.0734 -6.1133,-3.6469 -8.1833,-4.5714 -5.9094,-2.6393 1.925,1.6356 3.8375,2.986 4.25,3.0008 0.4125,0.015 0.75,0.484 0.75,1.0426 0,0.5587 -30.1662,40.6162 -67.036,89.0167 l -67.0361,88.001 83.0565,157.6295 c 45.6811,86.6962 82.9349,157.7314 82.7861,157.8561 -0.1488,0.1247 -1.7748,0.9921 -3.6134,1.9276 -4.8121,2.4484 -3.2622,2.956 2.06,0.6747 25.9571,-11.1265 62.1754,-16.7281 92.644,-14.3284 24.0685,1.8957 40.4572,5.6157 62.6389,14.2184 17.69,6.8607 42.027,21.0286 54,31.4365 5.6792,4.9368 5.7284,4.368 0.115,-1.331 z m -1782.115,-53.715 c 69.85,-14.5633 131.4141,-27.4097 136.8092,-28.5477 5.395,-1.138 10.12,-1.7611 10.5,-1.3846 0.3799,0.3764 1.2118,2.7873 1.8486,5.3575 1.1099,4.48 1.1305,4.3839 0.5,-2.327 -1.21,-12.877 -0.5582,-42.4535 1.1761,-53.3635 1.8399,-11.5747 5.6034,-27.1629 8.6525,-35.8382 2.5103,-7.1422 2.4869,-7.8628 -0.096,-2.9666 -1.1188,2.1205 -2.5505,3.6023 -3.2058,3.3179 -0.6513,-0.2826 -63.0592,-29.2942 -138.6842,-64.4702 -283.3904,-131.8154 -337.5067,-156.9242 -337.7582,-156.713 -0.1421,0.1192 41.7079,82.1947 93,182.3899 l 93.2582,182.1731 3.5,-0.5745 c 1.925,-0.316 60.65,-12.4899 130.5,-27.0531 z m 869.8338,-22.6518 c 63.815,-125.9049 141.285,-278.9736 149.0601,-294.5199 l 8.6372,-17.2699 -3.2656,1.4075 c -1.796,0.7741 -32.2905,14.9963 -67.7655,31.6049 -35.475,16.6085 -122.1,57.1172 -192.5,90.0192 -70.4,32.902 -144.425,67.5288 -164.5,76.9485 -20.075,9.4197 -37.4615,17.3726 -38.6367,17.6732 -1.7999,0.4603 -2.4139,-0.1792 -3.8944,-4.0558 -2.7881,-7.3004 -2.7256,-4.6553 0.083,3.5235 3.753,10.928 7.1653,24.9684 9.0941,37.4188 1.7854,11.5246 2.4253,39.9433 1.1933,53 -0.3632,3.85 -0.4416,6.1 -0.1741,5 0.2675,-1.1 0.897,-3.6035 1.3988,-5.5632 l 0.9123,-3.5633 126.7618,26.277 c 69.7189,14.4523 130.8117,27.1471 135.7617,28.2107 4.95,1.0635 9.9851,1.9799 11.1891,2.0363 1.9095,0.089 5.314,-6.0626 26.6447,-48.1475 z m -679.3343,-152.4961 c 3.5747,-4.7714 10.3247,-12.7368 15,-17.7009 l 8.5005,-9.0257 -6.8946,6.2364 c -3.7921,3.43 -7.2214,6.2363 -7.6207,6.2363 -0.5139,0 -306.8033,-339.7127 -341.6026,-378.8794 l -3.0025,-3.3794 -85.2249,90.2944 c -46.8736,49.6619 -84.8602,90.6589 -84.4147,91.1044 0.4455,0.4455 44.4488,21.1159 97.785,45.9342 104.7722,48.7523 336.1606,156.2538 369.475,171.6556 11.275,5.2126 21.7389,10.1181 23.253,10.9011 l 2.7531,1.4236 -2.5031,4.9395 c -4.1157,8.1221 -2.8484,7.0665 2.747,-2.2879 2.8875,-4.8273 8.1748,-12.6808 11.7495,-17.4522 z m 349.5005,17.7461 c -0.9061,-1.7522 -1.4937,-3.3396 -1.3058,-3.5275 0.3994,-0.3994 50.6297,-23.9281 229.8058,-107.6449 71.775,-33.5356 160.9884,-75.2259 198.2519,-92.645 37.2636,-17.4191 67.6386,-31.9498 67.5,-32.2904 -0.7196,-1.7688 -173.3393,-182.6472 -173.9485,-182.2707 -0.3949,0.2441 -77.7312,87.0541 -171.8584,192.9111 -94.1272,105.8571 -171.4813,192.4674 -171.898,192.4674 -0.4168,0 -3.8603,-2.7994 -7.6524,-6.2208 -6.7782,-6.1157 -6.7484,-6.0673 1.7625,2.8689 9.3084,9.7736 22.2507,26.5609 27.0953,35.1451 3.1663,5.6104 5.047,6.6202 2.2476,1.2068 z m 2226.8306,-6.7888 c 6.3342,-9.8607 14.2871,-19.8532 23.611,-29.666 l 7.5584,-7.9548 -6.8946,6.2048 c -3.7921,3.4126 -7.214,6.2048 -7.6044,6.2048 -0.3903,0 -14.1621,-14.9625 -30.6039,-33.25 -123.4064,-137.2594 -311.1353,-345.725 -313.2804,-347.8856 l -2.6167,-2.6356 -11.5,12.136 c -6.325,6.6748 -44.575,46.9478 -85,89.4956 -40.425,42.5478 -73.609,77.6476 -73.7422,77.9996 -0.1332,0.352 33.3918,16.3591 74.5,35.5714 329.842,154.1543 420.6669,196.6599 421.0619,197.0549 0.1803,0.1803 -0.3804,1.6973 -1.246,3.3711 -1.8263,3.5317 -2.0184,5.5322 -0.2649,2.7582 0.6552,-1.0364 3.365,-5.2684 6.0218,-9.4044 z M 1226.1298,3509.4123 c 39.9521,-42.3279 72.3071,-77.2725 71.9,-77.6547 -1.7512,-1.6441 -147.7423,-68.9066 -148.7338,-68.5262 -1.6064,0.6164 -80.0143,150.781 -79.9619,153.1408 0.035,1.5696 46.2566,63.2117 63.1912,84.2727 l 3.4355,4.2727 8.7644,-9.2727 c 4.8205,-5.1 41.4525,-43.9046 81.4046,-86.2326 z m 1788.0875,42.7292 34.4337,-45.2307 -39.0894,-74.2693 c -21.4992,-40.8481 -39.1706,-74.3845 -39.2699,-74.5253 -0.1442,-0.2044 -91.9919,42.598 -141.3743,65.8825 l -10.3722,4.8907 4.3722,4.9718 c 10.2135,11.614 155.4392,163.91 156.1192,163.7199 0.4108,-0.1149 16.2421,-20.5627 35.1807,-45.4396 z m -1068.9276,27.4923 c 43.2067,-27.8641 98.5145,-38.6149 150.1052,-29.1775 30.9885,5.6686 62.7143,19.4126 87.7073,37.9958 l 6.1875,4.6006 -5.3097,-4.8402 -5.3096,-4.8403 L 2351.806,3388.6 c 95.2246,-107.1247 172.9889,-195.1622 172.8096,-195.6389 -0.1792,-0.4768 -46.0236,-48.9543 -101.8764,-107.7279 -55.8527,-58.7735 -132.2838,-139.2013 -169.8469,-178.7283 l -68.2964,-71.8672 4.8469,-5.035 4.8469,-5.035 -7,5.5354 c -44.3749,35.0905 -103.6123,50.6612 -161,42.3194 -35.4047,-5.1464 -73.2554,-21.8857 -101.4712,-44.875 -1.9408,-1.5813 -1.1626,-0.6536 1.7294,2.0615 l 5.2581,4.9367 -52.7581,55.9585 c -29.017,30.7772 -106.2117,112.5728 -171.5438,181.7679 -103.045,109.1382 -118.6152,126.02 -117.5,127.3983 0.7071,0.8739 78.8135,87.7513 173.5699,193.061 l 172.2843,191.4722 -4.7843,4.4077 -4.7843,4.4077 6,-4.4354 c 3.3,-2.4395 9.15,-6.4669 13,-8.9498 z m -875.8625,-173.0738 34.1798,-65.1878 -8.6586,-4.1697 c -4.7623,-2.2933 -37.2337,-17.432 -72.1587,-33.6417 -34.92497,-16.2096 -68.35562,-31.7499 -74.2903,-34.534 l -10.79033,-5.0619 2.54033,-5.0131 c 4.15036,-8.1903 2.90476,-7.1721 -2.70967,2.2151 -8.26522,13.8193 -16.26537,24.0668 -29.75,38.1074 -6.875,7.1584 -10.38174,11.308 -7.79275,9.2212 2.58899,-2.0868 5.09368,-3.5553 5.56598,-3.2635 0.4723,0.2919 29.62904,38.0797 64.79275,83.9729 35.16369,45.8931 64.14949,83.2398 64.41289,82.9925 0.2634,-0.2473 15.8597,-29.7841 34.6586,-65.6374 z m 2031.5199,31.7834 c 10.0885,-13.2159 36.7923,-48.2605 59.3418,-77.877 22.5496,-29.6166 41.5533,-54.0609 42.2305,-54.3207 0.6772,-0.2599 3.1525,1.0153 5.5008,2.8338 2.3482,1.8184 -1.1354,-2.2993 -7.7413,-9.1505 -12.6282,-13.0971 -22.7545,-25.8604 -29.0273,-36.5865 -3.7911,-6.4824 -6.0042,-8.2535 -2.9619,-2.3703 0.9061,1.7522 1.4839,3.3495 1.2839,3.5494 -0.2,0.2 -14.7457,7.0749 -32.3237,15.2775 -17.5781,8.2026 -38.0352,17.8019 -45.4602,21.3318 -7.425,3.5299 -27.5467,12.9257 -44.7148,20.8796 -17.1682,7.9539 -31.2307,14.7016 -31.25,14.9947 -0.03,0.4501 14.0661,27.3301 59.1428,112.7826 3.8633,7.3236 7.162,13.1736 7.3305,13 0.1685,-0.1736 8.5605,-11.1286 18.6489,-24.3444 z m 909.0351,-144.6251 c 50.7691,-53.4346 92.3075,-97.5025 92.3075,-97.9286 0,-0.426 -45.2069,-51.0162 -100.4597,-112.4226 -81.0682,-90.0966 -100.8536,-111.5654 -102.5,-111.2208 -1.1222,0.2348 -78.9481,29.5239 -172.9466,65.0868 -93.9985,35.5629 -171.0174,64.5426 -171.1531,64.3994 -0.1357,-0.1431 -0.9719,-1.8353 -1.8583,-3.7603 -0.8864,-1.925 -1.3698,-2.6489 -1.0742,-1.6088 1.8167,6.3921 5.5272,27.7661 6.4289,37.0325 2.7261,28.0144 -0.6159,58.2959 -9.3319,84.5563 -3.5789,10.7826 -4.2551,14.6291 -1.1362,6.4623 1.4798,-3.8749 2.0953,-4.5163 3.8944,-4.0585 1.1752,0.2991 15.1867,6.6759 31.1367,14.1707 15.95,7.4948 83.9,39.2985 151,70.675 67.1,31.3764 135.725,63.4887 152.5,71.3606 16.775,7.8719 30.5866,14.3345 30.6925,14.3612 0.1059,0.027 41.7309,-43.6706 92.5,-97.1052 z m -2610.563,32.1907 c 32.9288,-34.9047 73.6645,-78.0704 90.5239,-95.9236 l 30.6535,-32.4605 -10.86,-12.0764 c -112.0625,-124.614 -168.6675,-187.0419 -169.4634,-186.8959 -1.0398,0.1908 -102.4208,193.0442 -102.4604,194.9068 -0.013,0.598 15.9868,32.323 35.5545,70.5 19.5676,38.1771 42.107,82.1497 50.0874,97.717 7.9805,15.5673 14.8663,28.1673 15.3019,28 0.4356,-0.1673 27.7338,-28.8626 60.6626,-63.7674 z m 1393.0853,16.7132 c 10.5615,-21.0375 33.5749,-66.6 51.1408,-101.25 l 31.9382,-63 -46.9639,-89 c -25.8301,-48.95 -48.4207,-91.8495 -50.2014,-95.3323 l -3.2377,-6.3323 -90.4454,101.6498 c -49.745,55.9075 -90.5817,102.0283 -90.7482,102.4908 -0.1666,0.4625 38.0834,41.2416 85,90.6202 46.9165,49.3786 87.0285,91.7198 89.1378,94.0916 2.1092,2.3717 4.1369,4.3122 4.506,4.3122 0.3691,0 9.3123,-17.2125 19.8738,-38.25 z m 106.7852,-6.6897 c 29.1897,-13.7132 46.8759,-22.5502 46.6725,-23.3203 -0.2863,-1.0836 -40.9841,-78.7277 -41.7015,-79.5587 -0.2967,-0.3438 -66.471,130.1993 -66.471,131.1286 0,0.6472 -0.4348,0.847 61.5,-28.2496 z M 1238.283,3304.946 c -15.7808,-30.8406 -28.985,-56.0689 -29.3428,-56.063 -0.7385,0.012 -36.1684,67.3544 -36.1173,68.6488 0.034,0.8628 93.1924,44.357 93.8096,43.7984 0.1886,-0.1707 -12.5687,-25.5436 -28.3495,-56.3842 z m -460.99327,6.8289 c 55.49872,-6.7321 104.98571,-43.777 126.94072,-95.0252 27.51153,-64.2184 11.55532,-137.3698 -39.94072,-183.1087 -48.98721,-43.5105 -118.01594,-52.9866 -177,-24.2982 -72.67248,35.3461 -107.34165,120.9275 -80.01952,197.5294 13.67245,38.3329 42.80946,71.1178 79.01952,88.9126 24.11669,11.8517 44.19154,16.5772 72,16.9483 5.5,0.073 14.05,-0.3578 19,-0.9582 z m 2600.08637,-1.3196 c 53.1706,-9.4166 98.4638,-45.3325 119.2781,-94.5831 30.2458,-71.5677 5.8254,-153.6555 -58.3645,-196.1885 -60.6738,-40.2033 -140.4511,-34.4931 -195,13.9573 -48.4397,43.0242 -65.9222,111.8236 -44.0195,173.2312 13.6724,38.3329 42.8094,71.1178 79.0195,88.9126 18.5028,9.0929 35.1944,14.0686 54,16.0973 10.5656,1.1397 34.952,0.368 45.0864,-1.4268 z m -2223.1725,-65.8282 c 14.6224,-27.9098 26.5861,-50.9932 26.5861,-51.2965 0,-1.0151 -72.3014,-141.9402 -73.5026,-143.2663 -0.9606,-1.0606 -14.5805,3.7157 -72.0027,25.25 -38.94991,14.6068 -71.1342,26.5579 -71.52065,26.5579 -0.38644,0 -1.35137,-1.4625 -2.14427,-3.25 -0.7929,-1.7875 -1.2937,-2.6239 -1.11288,-1.8588 10.76568,45.5583 9.115,86.5376 -5.14017,127.6088 -0.38179,1.1 0.26188,0.2757 1.43038,-1.8317 1.16851,-2.1075 2.65744,-3.6029 3.30874,-3.3233 0.6513,0.2797 38.30918,17.8065 83.68415,38.9486 45.375,21.142 82.7988,38.1625 83.1639,37.8232 0.3652,-0.3392 12.6277,-23.4521 27.25,-51.3619 z m 1911.2399,13.6195 c 39.5154,-18.4941 74.0962,-34.6897 76.8462,-35.9902 2.75,-1.3006 5.5253,-2.3691 6.1673,-2.3744 0.642,-0.01 1.9445,2.0252 2.8944,4.5125 3.0927,8.0982 2.3962,4.1924 -1.1668,-6.5423 -8.716,-26.2604 -12.058,-56.5419 -9.3319,-84.5563 0.9017,-9.2664 4.6122,-30.6404 6.4289,-37.0325 0.2956,-1.0401 -0.1878,-0.3162 -1.0742,1.6088 -0.8864,1.925 -1.7244,3.6189 -1.8622,3.7643 -0.1379,0.1453 -33.0117,-12.1247 -73.053,-27.2668 -40.0413,-15.1421 -72.9467,-27.3866 -73.1232,-27.2101 -0.1765,0.1765 -15.2009,29.673 -33.3876,65.5479 l -33.0667,65.2271 26.1599,49.7188 c 32.0426,60.8994 33.846,64.2188 34.8889,64.2188 0.4585,0 33.1645,-15.1315 72.68,-33.6256 z m -1376.584,-238.8744 c 202.4051,-214.5075 206.1837,-218.5 206.7978,-218.5 0.3202,0 3.7213,3.0375 7.558,6.75 l 6.9758,6.75 -6.9507,-7.5096 c -12.6203,-13.635 -26.6738,-34.2529 -33.896,-49.7288 -3.4678,-7.4308 -4.2865,-7.6933 -1.5524,-0.4977 1.0751,2.8295 1.6269,5.3429 1.2262,5.5853 -0.7141,0.432 -169.1207,63.7619 -390.0497,146.6795 -61.2266,22.9791 -111.5974,42.0565 -111.935,42.3942 -0.3376,0.3376 0.9817,2.2931 2.9317,4.3455 1.9501,2.0524 44.3891,49.1172 94.309,104.5884 l 90.7634,100.8569 2.7475,-2.8569 c 1.5111,-1.5712 60.4946,-64.0568 131.0744,-138.8568 z m 2557.0628,25.9611 c 59.052,-62.1713 135.6916,-142.849 170.31,-179.2836 l 62.9425,-66.2449 7.5072,7.2837 7.5071,7.2837 -6.9497,-7.5096 c -12.3546,-13.3499 -26.996,-34.7184 -33.3941,-48.7375 -2.8065,-6.1492 -3.8979,-6.3985 -1.4723,-0.3362 0.9169,2.2914 1.4982,4.327 1.2919,4.5233 -0.2064,0.1964 -25.3502,9.8135 -55.8752,21.3712 -98.2202,37.1894 -263.0289,99.4722 -355.4471,134.3269 -49.4709,18.6575 -90.1492,34.1249 -90.3962,34.3719 -0.247,0.247 1.3079,2.3708 3.4554,4.7195 2.1474,2.3488 43.8939,48.7269 92.77,103.0626 48.876,54.3356 89.207,98.6606 89.6243,98.5 0.4173,-0.1607 49.0741,-51.1596 108.1262,-113.331 z m -1595.6589,7.629 c 49.8864,-56.0633 90.5866,-102.3061 90.445,-102.7617 -0.1416,-0.4556 -25.7187,-10.4216 -56.8381,-22.1465 -64.0287,-24.1244 -308.1605,-116.3707 -386.0806,-145.8823 -28.325,-10.7278 -51.6688,-19.6652 -51.8752,-19.8609 -0.2063,-0.1956 0.3562,-2.1835 1.25,-4.4174 2.8696,-7.172 1.7129,-5.769 -3.6926,4.4787 -9.1696,17.3833 -18.8542,31.2237 -31.1319,44.4904 l -6.9497,7.5096 7.5103,-7.2868 7.5103,-7.2869 52.9394,55.7026 c 29.1167,30.6364 63.2894,66.6251 75.9394,79.9749 122.4179,129.1896 209.1122,220.0798 209.6356,219.7816 0.3496,-0.1991 41.4517,-46.232 91.3381,-102.2953 z m -1398.5492,5.5734 c 22.6798,-43.36 41.0696,-79.0027 40.8664,-79.2059 -0.5783,-0.5783 -137.422,50.9406 -137.7805,51.8716 -0.4852,1.2604 54.3539,107.722 55.0615,106.8932 0.3392,-0.3973 19.1729,-36.1988 41.8526,-79.5589 z m 1698.4071,-29.6513 c -0.4574,-0.4131 -27.1566,-10.6791 -59.3316,-22.8134 -32.175,-12.1343 -59.2612,-22.3561 -60.1916,-22.7151 -1.006,-0.3883 13.3583,27.9311 35.4447,69.8796 l 37.1362,70.5324 23.887,-47.0662 c 13.1378,-25.8864 23.5127,-47.4042 23.0553,-47.8173 z m -2002.35877,32.1583 -1.97974,-5.2102 2.25347,-0.9857 c 1.23941,-0.5421 32.17847,-12.2065 68.75344,-25.9209 45.5724,-17.0881 66.3988,-25.3472 66.1785,-26.2445 -0.2743,-1.117 -63.9588,-125.8026 -64.657,-126.5894 -0.1367,-0.1542 -24.21677,28.8708 -53.51119,64.5 -29.29441,35.6291 -53.67026,64.935 -54.16854,65.1242 -0.49828,0.1893 -3.47902,-1.8145 -6.62385,-4.4526 -4.29872,-3.6062 -3.21812,-2.2014 4.35376,5.66 15.59991,16.1965 28.18992,34.0257 37.54319,53.1665 1.80551,3.6948 3.40761,6.593 3.56022,6.4404 0.15262,-0.1526 -0.6134,-2.6221 -1.70226,-5.4878 z m 2211.99657,2.3295 c 0,-0.55 -0.4362,-0.325 -0.9694,0.5 -0.5332,0.825 -0.9694,1.95 -0.9694,2.5 0,0.55 0.4362,0.325 0.9694,-0.5 0.5332,-0.825 0.9694,-1.95 0.9694,-2.5 z m 16.8115,-29.2112 c 6.1383,-8.99 13.2503,-17.4932 23.6099,-28.228 7.7655,-8.0468 8.2513,-8.7277 3.293,-4.6161 -3.2396,2.6864 -6.1778,4.4315 -6.6326,3.9391 -0.4491,-0.4861 -23.4174,-28.5588 -51.0407,-62.3838 -27.6233,-33.825 -52.1235,-63.7364 -54.4448,-66.4699 l -4.2207,-4.9698 -16.5364,32.4698 c -45.3718,89.0896 -49.7855,98.041 -48.5597,98.4848 1.6902,0.6119 97.5158,36.8307 121.0647,45.7582 14.5903,5.5313 18.7126,7.4797 18.3635,8.6796 -0.2476,0.851 -0.7729,2.4473 -1.1673,3.5473 -0.3943,1.1 2.1511,-2.95 5.6566,-9 3.5054,-6.05 8.282,-13.795 10.6145,-17.2112 z m 362.0941,24.3362 c -0.6599,-1.4484 -1.0143,-2.8133 -0.7874,-3.033 0.5698,-0.5522 22.8106,-8.9872 183.8346,-69.7216 77.2323,-29.1301 141.0455,-53.3126 141.8073,-53.7389 1.0062,-0.5631 -33.7126,-39.7527 -126.9222,-143.2664 -70.569,-78.3703 -160.8414,-178.6446 -200.6053,-222.8319 l -72.298,-80.3405 4.798,-4.426 4.798,-4.426 -4.5,3.4658 c -14.1527,10.9001 -41.8143,25.6249 -58.5,31.1407 -20.9054,6.9106 -39.1345,10.2236 -61.5,11.177 -28.3037,1.2066 -53.1401,-3.1081 -86.5,-15.0271 -1.1,-0.393 -0.2,0.2683 2,1.4697 2.2,1.2013 4.1673,2.3325 4.3717,2.5137 0.2044,0.1813 -32.4851,65.2623 -72.6434,144.6245 -40.1582,79.3623 -75.5059,149.2859 -78.5503,155.386 l -5.5352,11.091 62.0605,75.8411 62.0606,75.841 -4.382,3.8992 -4.3819,3.8993 4.7274,-3.1138 c 9.069,-5.9734 22.3415,-13.2946 31.7726,-17.5258 72.8711,-32.6936 159.1098,-20.9594 219.787,29.9058 21.2645,17.8259 38.8457,39.2963 51.7963,63.2547 3.7531,6.9431 5.7473,9.331 3.2917,3.9415 z M 884.78973,2985.4946 c 0,-0.2076 -0.7875,-0.9951 -1.75,-1.75 -1.58606,-1.2438 -1.62143,-1.2085 -0.37756,0.3776 1.30637,1.6657 2.12756,2.1955 2.12756,1.3724 z m 322.50957,-28.0267 72.5656,-27.2874 -79.5597,-88.4041 c -43.7578,-48.6223 -79.9856,-88.4042 -80.5061,-88.4042 -0.5206,0 -15.1889,17.325 -32.5962,38.5 -17.4074,21.175 -32.2831,39.2232 -33.0572,40.1071 -1.2389,1.4147 1.8988,8.06 26.2046,55.5 52.5044,102.478 50.3936,98.5422 52.4919,97.8762 1.0403,-0.3301 34.546,-12.8796 74.4571,-27.8876 z m 1805.8106,-50.6314 c 21.3511,-42.3482 38.6761,-77.5889 38.5,-78.3128 -0.1761,-0.7239 -14.7202,-18.9456 -32.3202,-40.4927 l -32,-39.1765 -2,2.391 c -1.1,1.3151 -36.8054,41.556 -79.3452,89.4243 -42.5399,47.8683 -77.4149,87.3944 -77.5,87.8359 -0.1412,0.732 142.5326,55.1888 144.8452,55.2855 0.55,0.023 18.4691,-34.6066 39.8202,-76.9547 z m 1092.1798,-65.9427 c 100.65,-38.0577 216.2499,-81.7691 256.8888,-97.1366 40.6388,-15.3674 74.0077,-27.8158 74.153,-27.6629 0.1454,0.1528 0.9877,1.8529 1.8718,3.7779 1.0652,2.3193 1.4154,2.6566 1.0381,1 -7.7663,-34.1017 -9.3222,-61.2603 -5.0103,-87.4587 1.6441,-9.9896 1.4263,-12.3265 -0.4285,-4.5953 -0.6668,2.7797 -1.4274,5.054 -1.6902,5.054 -0.4675,0 -111.9582,-30.1638 -419.8227,-113.5829 -150.5298,-40.7876 -383.6611,-103.9179 -441.5,-119.555 -16.225,-4.3865 -30.2595,-8.1964 -31.1878,-8.4664 -1.5399,-0.448 -1.5628,-0.9031 -0.2609,-5.1934 2.3298,-7.6769 1.557,-7.2523 -1.4514,0.7977 -8.933,23.9034 -24.9861,49.3178 -43.5771,68.9888 l -8.0228,8.4888 6.7866,-6.2388 c 3.7326,-3.4313 7.1404,-6.2388 7.5729,-6.2388 0.6449,0 112.9538,124.4972 386.1405,428.0462 l 28.5,31.6676 3.5,-1.2482 c 1.925,-0.6865 85.85,-32.3863 186.5,-70.444 z M 1424.2794,2728.8722 c 50.4744,-96.525 92.6929,-177.1825 93.8188,-179.2388 1.126,-2.0564 1.7918,-3.9943 1.4796,-4.3065 -1.0282,-1.0282 -185.2028,-50.5411 -186.8962,-50.2446 -0.9103,0.1595 -41.978,49.324 -91.2616,109.2546 l -89.6064,108.9647 2.843,3.0353 c 1.5637,1.6694 41.4381,45.9525 88.6098,98.4069 l 85.7668,95.3717 1.7373,-2.8717 c 0.9555,-1.5794 43.0345,-81.8466 93.5089,-178.3716 z m 1446.5934,76.0315 c 46.1543,-51.9272 83.9169,-94.6909 83.9169,-95.0303 0,-1.3895 -176.2003,-216.0012 -177.3411,-216.0012 -1.836,0 -178.5878,48.5955 -179.284,49.2918 -0.8237,0.8236 186.859,356.7969 187.9289,356.4403 0.4744,-0.1582 38.6251,-42.7734 84.7793,-94.7006 z m -148.9096,82.2185 c -3.4508,-6.733 -173.597,-329.8438 -173.8772,-330.196 -0.4472,-0.5619 7.949,-2.8278 -147.5346,39.8153 -72.456,19.8719 -132.187,36.1307 -132.7356,36.1307 -0.5485,0 -1.5115,-2.0422 -2.1401,-4.5383 -1.7903,-7.11 -1.9432,-4.7378 -0.3274,5.0796 0.811,4.9273 1.7487,15.2587 2.084,22.9587 0.8969,20.6036 -0.8044,36.109 -7.0773,64.5 -0.3038,1.375 0.189,0.7909 1.0951,-1.2979 0.9061,-2.0889 2.1407,-3.623 2.7435,-3.4092 3.1531,1.1183 176.4532,66.6402 307.0961,116.1081 81.95,31.0303 149.5783,56.4593 150.2852,56.5089 0.9042,0.063 1.0193,-0.4286 0.3883,-1.6599 z m -1096.1735,-86.75 c 123.9292,-46.475 225.6415,-84.5 226.0273,-84.5 0.3857,0 1.4345,1.6875 2.3305,3.75 0.9097,2.0939 1.3853,2.6459 1.0769,1.25 -6.2729,-28.391 -7.9742,-43.8964 -7.0773,-64.5 0.3353,-7.7 1.273,-18.0314 2.084,-22.9587 1.6514,-10.0334 1.424,-12.3173 -0.4489,-4.5101 -0.9495,3.9581 -1.6074,5.0349 -2.8627,4.6854 -63.2288,-17.6067 -276.6779,-74.5685 -277.2566,-73.9898 -0.4526,0.4526 -36.8653,69.6616 -80.9172,153.798 -44.0519,84.1364 -82.3074,157.1377 -85.0121,162.2252 -2.7047,5.0875 -4.5468,9.25 -4.0937,9.25 0.4532,0 102.2206,-38.025 226.1498,-84.5 z m 453.2186,23.0159 c 55.1282,-7.2266 103.4053,-43.7127 125.2221,-94.6384 27.5441,-64.2943 11.4078,-137.7763 -40.2824,-183.4398 -48.9341,-43.2288 -117.8363,-52.5767 -176.6583,-23.9671 -31.1461,15.1487 -57.9276,41.9281 -73.035,73.0294 -18.9543,39.0206 -21.4712,83.8844 -6.9845,124.5 13.6724,38.3329 42.8094,71.1178 79.0195,88.9126 30.0343,14.7598 60.2996,19.8531 92.7186,15.6033 z m 2590.3678,-0.8711 c 53.7828,-9.9353 98.4604,-45.3861 119.2781,-94.6448 27.0037,-63.8964 10.6631,-137.1823 -40.7062,-182.5623 -48.5382,-42.879 -117.6527,-52.495 -175.6583,-24.4395 -32.0503,15.5017 -58.7257,41.985 -74.035,73.5018 -16.6604,34.2983 -20.7429,73.7848 -11.3728,110 7.5426,29.1518 21.6081,53.4251 43.46,75 24.7524,24.4387 57.2985,39.9951 93.1228,44.5111 9.5876,1.2086 36.2715,0.4145 45.9114,-1.3663 z m -3611.6033,-73.4717 28.2438,-34.3268 -2.4962,-2.6732 c -1.373,-1.4702 -47.8,-53.0385 -103.17114,-114.5962 l -100.67487,-111.923 4.30767,-3.8452 c 3.6131,-3.2252 3.09344,-2.9957 -3.22292,1.4231 -13.8369,9.68 -12.99665,8.9981 -8.73197,7.0857 2.0556,-0.9218 3.89055,-1.4828 4.07768,-1.2467 0.18714,0.236 30.85761,60.0542 68.15661,132.9292 83.30094,162.7537 83.60634,163.3404 84.52294,162.325 0.4095,-0.4538 13.4543,-16.2721 28.9884,-35.1519 z M 3153.728,2628.8722 c 29.8795,-59.125 58.1169,-114.8111 62.7499,-123.7468 l 8.4235,-16.2468 2.9441,1.5225 c 4.2701,2.2081 3.6092,1.1724 -1.3058,-2.0465 -2.3375,-1.5309 -6.95,-4.7652 -10.25,-7.1874 l -6,-4.4039 5.3129,4.8045 5.3128,4.8044 -99.9685,112.4404 -99.9684,112.4404 9.045,11.0596 c 4.9748,6.0828 17.6055,21.5332 28.0683,34.3342 l 19.0232,23.2747 11.1433,-21.7747 c 6.1288,-11.976 35.5902,-70.1496 65.4697,-129.2746 z m -1951.069,-55.9901 c 41.8278,-50.8695 75.7311,-92.7562 75.3406,-93.0814 -0.3904,-0.3253 -16.0099,-4.7038 -34.7099,-9.73 -18.7,-5.0262 -89.575,-24.1831 -157.5,-42.5708 -67.925,-18.3877 -125.38773,-33.9369 -127.69499,-34.5537 l -4.19503,-1.1215 1.4342,-4.7262 c 2.33601,-7.6981 1.56803,-7.2867 -1.44423,0.7737 -8.48466,22.7038 -24.35868,48.2888 -41.44168,66.7939 -5.89231,6.3828 -5.94704,6.4881 -1.26745,2.4385 2.68993,-2.3278 5.21218,-4.2324 5.605,-4.2324 0.39281,0 45.84345,50.149 101.00138,111.4421 l 100.2872,111.4422 4.2672,-5.1922 c 2.347,-2.8556 38.4899,-46.8126 80.3177,-97.6822 z m 1884.9407,-11.8008 c 52.4204,-58.965 95.5557,-107.2091 95.8561,-107.2091 0.3003,0 2.4108,1.4273 4.69,3.1718 4.1146,3.1493 4.1078,3.1334 -0.9585,-2.25 -16.5297,-17.5643 -33.0712,-44.228 -41.5027,-66.8992 -3.0351,-8.1611 -3.7719,-8.485 -1.3823,-0.6077 0.82,2.7032 1.3777,5.0242 1.2392,5.1579 -0.1385,0.1337 -7.2268,2.1328 -15.7518,4.4424 -25.5016,6.9088 -288.0747,78.9565 -293.6903,80.586 l -5.1903,1.506 74.5816,91.1964 c 93.6345,114.4937 83.319,102.3874 85.2359,100.0337 0.8597,-1.0555 44.4526,-50.1632 96.8731,-109.1282 z m -1225.0519,26.7909 c 15.5618,-40.1223 45.5185,-76.344 82.9837,-100.3384 11.1123,-7.1169 29.8762,-16.1777 42.5569,-20.5502 53.6071,-18.4845 108.9124,-15.5853 159.2013,8.3454 35.8487,17.0592 64.1119,41.6189 86.1944,74.9 6.7053,10.1057 19.1555,34.7957 21.3805,42.3996 0.6851,2.3411 1.4291,4.073 1.6534,3.8487 0.2242,-0.2243 -0.2963,-2.7787 -1.1569,-5.6765 -0.8605,-2.8978 -1.4536,-5.3709 -1.318,-5.4957 0.2634,-0.2425 72.5115,-20.1332 86.7466,-23.8823 14.379,-3.7869 182.4789,-49.8883 182.8309,-50.1413 0.182,-0.1307 -4.1513,-8.7138 -9.6294,-19.0735 -12.0474,-22.7825 -163.0051,-309.2937 -284.1666,-539.3358 -48.5215,-92.125 -90.2146,-171.1884 -92.6511,-175.6965 l -4.4302,-8.1964 -6.2268,2.3371 c -8.3607,3.138 -24.9937,7.1873 -37.2268,9.0629 -31.3227,4.8023 -67.3569,1.8607 -96.0465,-7.8405 l -10.0464,-3.3972 -112.1425,214.1153 c -238.6948,455.7434 -277.4094,529.8017 -277.0924,530.0574 0.1803,0.1454 59.0528,16.1496 130.8278,35.5648 71.775,19.4153 131.9367,35.6954 133.6928,36.178 l 3.1928,0.8775 -1.432,4.7188 c -1.345,4.4323 -1.933,8.4905 -0.7561,5.2188 0.2967,-0.825 1.674,-4.425 3.0606,-8 z m -277.3343,-166.2581 c 22.5081,-43.033 85.1075,-162.6169 139.1096,-265.7419 54.0022,-103.125 118.3191,-225.975 142.9264,-273 24.6074,-47.025 47.2285,-90.225 50.2691,-96 3.0406,-5.775 4.8559,-9.825 4.0338,-9 -1.4055,1.4106 -35.8077,43.1701 -98.8581,120 -15.1205,18.425 -76.9474,93.575 -137.3931,167 -261.563,317.7274 -317.6687,386.178 -317.0581,386.8195 0.5646,0.5933 172.4231,47.7748 175.0466,48.0568 0.55,0.059 19.4157,-35.1013 41.9238,-78.1344 z m 1073.1046,52.7468 c 45.6344,-12.5093 83.3388,-23.0763 83.7875,-23.4824 0.4488,-0.406 -34.4262,-43.8368 -77.5,-96.5129 -207.8161,-254.1443 -462.861,-565.9437 -466.6085,-570.4419 -2.1768,-2.6128 1.363,4.1798 73.9742,141.9485 38.6987,73.425 122.3267,232.1578 185.8399,352.7396 63.5132,120.5818 115.9413,219.0717 116.5069,218.8664 0.5656,-0.2052 38.3656,-10.608 84,-23.1173 z m -1881.02837,-2.586 c 34.41461,-4.1746 68.3351,-20.7092 92.92018,-45.2943 40.00848,-40.0085 56.00059,-96.0079 43.00377,-150.586 -20.6916,-86.891 -108.01444,-139.8996 -194.44599,-118.0369 -46.37237,11.7298 -86.01559,44.1844 -105.50995,86.3774 -18.12185,39.2223 -20.22706,82.4398 -5.9739,122.6371 13.54452,38.1988 42.79555,71.1176 79.00589,88.9126 24.11669,11.8517 44.19154,16.5772 72,16.9483 5.5,0.073 14.05,-0.3578 19,-0.9582 z m 2592.51037,-1.2924 c 42.0088,-8.3061 74.5204,-28.4704 100.1428,-62.1103 35.0717,-46.0459 41.4851,-109.1532 16.6159,-163.5 -15.9838,-34.9295 -47.6615,-65.1132 -83.8258,-79.8724 -41.5743,-16.9671 -88.2022,-15.8099 -129.28,3.2084 -32.2221,14.9183 -61.4234,44.055 -76.1953,76.0269 -18.1218,39.2223 -20.2271,82.4398 -5.9739,122.6371 13.5445,38.1988 42.7956,71.1176 79.0059,88.9126 18.5061,9.0945 35.207,14.0724 54,16.0954 10.9894,1.183 36.4067,0.4024 45.5104,-1.3977 z M 1443.7623,2279.8722 c 69.9073,-84.975 135.0619,-164.175 144.7878,-176 9.7259,-11.825 68.7876,-83.6 131.2482,-159.5 62.4606,-75.9 129.4702,-157.35 148.9103,-181 19.44,-23.65 35.7504,-43.1548 36.2454,-43.344 0.495,-0.1893 3.473,1.8199 6.6178,4.4647 4.2375,3.5637 2.9993,1.9637 -4.7821,-6.1798 -5.775,-6.0437 -13.1803,-14.5779 -16.4562,-18.9648 -7.633,-10.2216 -8.4153,-11.0055 -5.3394,-5.3504 l 2.5159,4.6257 -10.6102,6.0122 c -15.7061,8.8998 -106.7365,60.693 -197.6101,112.4335 -44,25.0522 -163.25,92.9259 -265,150.8305 -101.75,57.9045 -222.125,126.4106 -267.5,152.2357 -45.375,25.8251 -107.3266,61.0807 -137.6703,78.3457 -30.34362,17.2651 -55.55302,31.391 -56.02085,31.391 -0.46782,0 -1.94687,-2.0068 -3.28676,-4.4596 -3.65969,-6.6994 -3.48733,-4.8114 0.32463,3.556 6.61619,14.5228 12.46558,34.7781 15.16715,52.5211 3.03466,19.9305 3.01808,38.7826 -0.0571,64.8825 -0.4622,3.9229 -0.44922,3.9421 0.67287,1 0.62929,-1.65 1.25301,-3.133 1.38605,-3.2955 0.13304,-0.1625 35.95891,9.3923 79.61311,21.2328 43.6542,11.8406 121.4462,32.9408 172.8712,46.8895 85.9987,23.3266 93.6351,25.2333 95.1841,23.7672 0.9263,-0.8767 58.8811,-71.119 128.7885,-156.094 z m 1376.9825,149.9084 c 12.3997,-3.3503 87.2288,-23.8253 166.2869,-45.5 79.0581,-21.6746 144.1892,-39.4084 144.7356,-39.4084 0.5465,0 1.5078,2.0422 2.1364,4.5383 1.7903,7.11 1.9432,4.7378 0.3274,-5.0796 -6.1413,-37.3139 0.1609,-83.2029 16.0969,-117.2087 2.3842,-5.0875 4.1813,-9.25 3.9937,-9.25 -0.1876,0 -1.7379,2.475 -3.4451,5.5 -1.7072,3.025 -3.4766,5.5 -3.9321,5.5 -0.4555,0 -13.6141,-7.3653 -29.2415,-16.3673 -15.6273,-9.0021 -86.0133,-49.5714 -156.4133,-90.1541 -70.4,-40.5827 -179.525,-103.4733 -242.5,-139.7569 -222.0659,-127.9453 -254.1109,-146.41 -318,-183.2346 -35.475,-20.4472 -88.575,-51.0362 -118,-67.9755 -29.425,-16.9394 -53.8977,-31.1544 -54.3838,-31.589 -0.4935,-0.4413 0.338,-2.9171 1.8829,-5.6064 3.4769,-6.0524 2.3641,-4.9149 -5.0717,5.1838 -3.2397,4.4 -10.6237,12.9386 -16.4089,18.9748 -8.0633,8.413 -9.1609,9.8407 -4.7023,6.1161 3.2341,-2.7017 6.1775,-4.4662 6.6302,-3.9747 0.4478,0.4861 62.616,76.4838 138.1516,168.8838 75.5356,92.4 160.752,196.6364 189.3697,231.6364 28.6178,35 98.1573,120.1288 154.5323,189.175 56.375,69.0463 103.1548,125.5724 103.9551,125.6137 0.8003,0.041 11.6003,-2.6663 24,-6.0167 z M 964.47284,2351.6847 c -0.31922,-0.7977 -0.55618,-0.5608 -0.60416,0.6042 -0.0434,1.0541 0.19293,1.6448 0.52522,1.3125 0.33229,-0.3323 0.36781,-1.1948 0.0789,-1.9167 z m 2583.99996,0 c -0.3192,-0.7977 -0.5562,-0.5608 -0.6042,0.6042 -0.043,1.0541 0.193,1.6448 0.5253,1.3125 0.3323,-0.3323 0.3678,-1.1948 0.079,-1.9167 z M 1938.7897,1746.4946 c 0,-0.2076 -0.7875,-0.9951 -1.75,-1.75 -1.5861,-1.2438 -1.6214,-1.2085 -0.3776,0.3776 1.3064,1.6657 2.1276,2.1955 2.1276,1.3724 z m 140.2186,-15.1065 c 55.1282,-7.2266 103.4053,-43.7127 125.2221,-94.6384 21.7497,-50.7688 16.8435,-107.1137 -13.2682,-152.3775 -43.979,-66.1092 -128.9037,-89.7791 -201.5092,-56.164 -31.0609,14.3807 -59.5772,42.2297 -74.917,73.164 -19.1479,38.6138 -21.8164,84.7051 -7.2658,125.5 13.6724,38.3329 42.8094,71.1178 79.0195,88.9126 29.8749,14.6815 60.4716,19.8306 92.7186,15.6033 z" fill="#000000"/></g><text x="0" y="3710.6313" fill="#000000" font-size="5px" font-weight="bold" font-family="'Helvetica Neue', Helvetica, Arial-Unicode, Arial, Sans-serif">Created by Lucas Rathgeb</text><text x="0" y="3715.6313" fill="#000000" font-size="5px" font-weight="bold" font-family="'Helvetica Neue', Helvetica, Arial-Unicode, Arial, Sans-serif">from the Noun Project</text></svg>